{"accessors":[{"bufferView":0,"byteOffset":0,"componentType":5126,"count":94,"max":[0.16771798822648635,0.3862507750854704,0.38742149128041467],"min":[0.035999999999999938,-0.38781199215099079,-0.38742149128041467],"type":"VEC3"},{"bufferView":0,"byteOffset":1128,"componentType":5126,"count":486,"max":[0.26100000000000009,0.39593727959428856,0.3971373553360152],"min":[0.16771798822648616,-0.39753764929617865,-0.39713735533601526],"type":"VEC3"},{"bufferView":0,"byteOffset":6960,"componentType":5126,"count":57,"max":[0.03600000000000007,0.29846079701756858,0.29961495215131586],"min":[0.035999999999999938,-0.3,-0.29961495215131586],"type":"VEC3"},{"bufferView":0,"byteOffset":7644,"componentType":5126,"count":65,"max":[0.26100000000000009,0.33635898705252528,0.3375062608888209],"min":[0.26099999999999998,-0.33788897449072016,-0.33750626088882099],"type":"VEC3"},{"bufferView":0,"byteOffset":8424,"componentType":5126,"count":102,"max":[0.23428201177351377,0.28218800784900929,0.28064215241619386],"min":[0.03599999999999996,-0.28218800784900907,-0.2806421524161938],"type":"VEC3"},{"bufferView":0,"byteOffset":9648,"componentType":5126,"count":202,"max":[0.26100000000000009,0.33211102550927987,0.3321110255092798],"min":[0.23428201177351366,-0.33211102550927976,-0.3321110255092798],"type":"VEC3"},{"bufferView":1,"byteOffset":0,"componentType":5126,"count":94,"type":"VEC3"},{"bufferView":1,"byteOffset":1128,"componentType":5126,"count":486,"type":"VEC3"},{"bufferView":1,"byteOffset":6960,"componentType":5126,"count":57,"type":"VEC3"},{"bufferView":1,"byteOffset":7644,"componentType":5126,"count":65,"type":"VEC3"},{"bufferView":1,"byteOffset":8424,"componentType":5126,"count":102,"type":"VEC3"},{"bufferView":1,"byteOffset":9648,"componentType":5126,"count":202,"type":"VEC3"},{"bufferView":2,"byteOffset":0,"componentType":5123,"count":348,"type":"SCALAR"},{"bufferView":2,"byteOffset":696,"componentType":5123,"count":2652,"type":"SCALAR"},{"bufferView":2,"byteOffset":6000,"componentType":5123,"count":171,"type":"SCALAR"},{"bufferView":2,"byteOffset":6344,"componentType":5123,"count":195,"type":"SCALAR"},{"bufferView":2,"byteOffset":6736,"componentType":5123,"count":420,"type":"SCALAR"},{"bufferView":2,"byteOffset":7576,"componentType":5123,"count":996,"type":"SCALAR"}],"asset":{"generator":"Open CASCADE Technology 7.6 [dev.opencascade.org]","version":"2.0"},"bufferViews":[{"buffer":0,"byteLength":12072,"byteOffset":0,"byteStride":12,"target":34962},{"buffer":0,"byteLength":12072,"byteOffset":12072,"byteStride":12,"target":34962},{"buffer":0,"byteLength":9568,"byteOffset":24144,"target":34963}],"buffers":[{"byteLength":33712,"uri":"enemy_eye.bin"}],"materials":[{"name":"mat_0","pbrMetallicRoughness":{"baseColorFactor":[0.6038273572921753,0.6038273572921753,0.6038273572921753,1.0]},"doubleSided":true}],"meshes":[{"name":"Fillet","primitives":[{"attributes":{"NORMAL":6,"POSITION":0},"indices":12,"material":0,"mode":4},{"attributes":{"NORMAL":7,"POSITION":1},"indices":13,"material":0,"mode":4},{"attributes":{"NORMAL":8,"POSITION":2},"indices":14,"material":0,"mode":4},{"attributes":{"NORMAL":9,"POSITION":3},"indices":15,"material":0,"mode":4},{"attributes":{"NORMAL":10,"POSITION":4},"indices":16,"material":0,"mode":4},{"attributes":{"NORMAL":11,"POSITION":5},"indices":17,"material":0,"mode":4}]}],"nodes":[{"mesh":0,"name":"Fillet"}],"scene":0,"scenes":[{"nodes":[0]}]}