{"accessors":[{"bufferView":0,"byteOffset":0,"componentType":5126,"count":64,"max":[0.795,0.195,1.0943339761363007],"min":[0.795,-0.195,0.7056660238636994],"type":"VEC3"},{"bufferView":0,"byteOffset":768,"componentType":5126,"count":54,"max":[1.35,0.12000000000000023,1.0191250648917667],"min":[0.3,-0.12,0.7808749351082336],"type":"VEC3"},{"bufferView":0,"byteOffset":1416,"componentType":5126,"count":78,"max":[0.75,0.195,1.0943339761363007],"min":[0.72,-0.195,0.7056660238636994],"type":"VEC3"},{"bufferView":0,"byteOffset":2352,"componentType":5126,"count":64,"max":[0.9,0.195,1.0943339761363007],"min":[0.9,-0.195,0.7056660238636994],"type":"VEC3"},{"bufferView":0,"byteOffset":3120,"componentType":5126,"count":72,"max":[1.125,0.22500000000000004,1.1233594966720624],"min":[0.975,-0.22499999999999999,0.6766405033279379],"type":"VEC3"},{"bufferView":0,"byteOffset":3984,"componentType":5126,"count":53,"max":[0.375,0.37436555935172557,0.7350000000000001],"min":[-0.37246438415322866,-0.37436555935172557,0.7349999999999999],"type":"VEC3"},{"bufferView":0,"byteOffset":4620,"componentType":5126,"count":54,"max":[0.795,0.15,1.0489063311147083],"min":[0.75,-0.15,0.7510936688852919],"type":"VEC3"},{"bufferView":0,"byteOffset":5268,"componentType":5126,"count":54,"max":[0.975,0.15000000000000028,1.0489063311147083],"min":[0.9,-0.15,0.7510936688852919],"type":"VEC3"},{"bufferView":0,"byteOffset":5916,"componentType":5126,"count":54,"max":[1.2,0.2250000000000001,1.1233594966720624],"min":[1.125,-0.22499999999999999,0.6766405033279379],"type":"VEC3"},{"bufferView":0,"byteOffset":6564,"componentType":5126,"count":26,"max":[0.3,0.11999999999999998,1.0191250648917665],"min":[0.3,-0.12000000000000003,0.7808749351082336],"type":"VEC3"},{"bufferView":0,"byteOffset":6876,"componentType":5126,"count":54,"max":[0.87,0.15,1.0489063311147083],"min":[0.8250000000000001,-0.15,0.7510936688852919],"type":"VEC3"},{"bufferView":0,"byteOffset":7524,"componentType":5126,"count":52,"max":[0.975,0.165,1.0637969642261789],"min":[0.975,-0.165,0.7362030357738211],"type":"VEC3"},{"bufferView":0,"byteOffset":8148,"componentType":5126,"count":64,"max":[0.87,0.195,1.0943339761363007],"min":[0.87,-0.195,0.7056660238636994],"type":"VEC3"},{"bufferView":0,"byteOffset":8916,"componentType":5126,"count":78,"max":[0.8250000000000001,0.195,1.0943339761363007],"min":[0.795,-0.19500000000000004,0.7056660238636994],"type":"VEC3"},{"bufferView":0,"byteOffset":9852,"componentType":5126,"count":52,"max":[1.35,0.1650000000000001,1.0637969642261789],"min":[1.35,-0.16499999999999993,0.7362030357738211],"type":"VEC3"},{"bufferView":0,"byteOffset":10476,"componentType":5126,"count":231,"max":[0.16770509831248724,0.225,1.1220870825843788],"min":[-0.22270982442320989,-0.225,0.735],"type":"VEC3"},{"bufferView":0,"byteOffset":13248,"componentType":5126,"count":30,"max":[0.45,0.447534852915723,0.6750000000000002],"min":[-0.45,-0.44753485291572306,0.6749999999999999],"type":"VEC3"},{"bufferView":0,"byteOffset":13608,"componentType":5126,"count":64,"max":[0.75,0.195,1.0943339761363007],"min":[0.75,-0.195,0.7056660238636994],"type":"VEC3"},{"bufferView":0,"byteOffset":14376,"componentType":5126,"count":72,"max":[1.35,0.22500000000000007,1.1233594966720624],"min":[1.2,-0.22499999999999996,0.6766405033279379],"type":"VEC3"},{"bufferView":0,"byteOffset":15240,"componentType":5126,"count":59,"max":[0.45,0.447534852915723,0.7350000000000002],"min":[-0.45,-0.44753485291572306,0.6749999999999999],"type":"VEC3"},{"bufferView":0,"byteOffset":15948,"componentType":5126,"count":54,"max":[0.72,0.15,1.0489063311147083],"min":[0.1677050983124842,-0.15,0.7510936688852919],"type":"VEC3"},{"bufferView":0,"byteOffset":16596,"componentType":5126,"count":78,"max":[0.9,0.195,1.0943339761363007],"min":[0.87,-0.195,0.7056660238636994],"type":"VEC3"},{"bufferView":0,"byteOffset":17532,"componentType":5126,"count":64,"max":[0.72,0.195,1.0943339761363007],"min":[0.72,-0.195,0.7056660238636994],"type":"VEC3"},{"bufferView":0,"byteOffset":18300,"componentType":5126,"count":64,"max":[0.8250000000000001,0.19499999999999999,1.0943339761363007],"min":[0.8250000000000001,-0.195,0.7056660238636994],"type":"VEC3"},{"bufferView":1,"byteOffset":0,"componentType":5126,"count":64,"type":"VEC3"},{"bufferView":1,"byteOffset":768,"componentType":5126,"count":54,"type":"VEC3"},{"bufferView":1,"byteOffset":1416,"componentType":5126,"count":78,"type":"VEC3"},{"bufferView":1,"byteOffset":2352,"componentType":5126,"count":64,"type":"VEC3"},{"bufferView":1,"byteOffset":3120,"componentType":5126,"count":72,"type":"VEC3"},{"bufferView":1,"byteOffset":3984,"componentType":5126,"count":53,"type":"VEC3"},{"bufferView":1,"byteOffset":4620,"componentType":5126,"count":54,"type":"VEC3"},{"bufferView":1,"byteOffset":5268,"componentType":5126,"count":54,"type":"VEC3"},{"bufferView":1,"byteOffset":5916,"componentType":5126,"count":54,"type":"VEC3"},{"bufferView":1,"byteOffset":6564,"componentType":5126,"count":26,"type":"VEC3"},{"bufferView":1,"byteOffset":6876,"componentType":5126,"count":54,"type":"VEC3"},{"bufferView":1,"byteOffset":7524,"componentType":5126,"count":52,"type":"VEC3"},{"bufferView":1,"byteOffset":8148,"componentType":5126,"count":64,"type":"VEC3"},{"bufferView":1,"byteOffset":8916,"componentType":5126,"count":78,"type":"VEC3"},{"bufferView":1,"byteOffset":9852,"componentType":5126,"count":52,"type":"VEC3"},{"bufferView":1,"byteOffset":10476,"componentType":5126,"count":231,"type":"VEC3"},{"bufferView":1,"byteOffset":13248,"componentType":5126,"count":30,"type":"VEC3"},{"bufferView":1,"byteOffset":13608,"componentType":5126,"count":64,"type":"VEC3"},{"bufferView":1,"byteOffset":14376,"componentType":5126,"count":72,"type":"VEC3"},{"bufferView":1,"byteOffset":15240,"componentType":5126,"count":59,"type":"VEC3"},{"bufferView":1,"byteOffset":15948,"componentType":5126,"count":54,"type":"VEC3"},{"bufferView":1,"byteOffset":16596,"componentType":5126,"count":78,"type":"VEC3"},{"bufferView":1,"byteOffset":17532,"componentType":5126,"count":64,"type":"VEC3"},{"bufferView":1,"byteOffset":18300,"componentType":5126,"count":64,"type":"VEC3"},{"bufferView":2,"byteOffset":0,"componentType":5123,"count":192,"type":"SCALAR"},{"bufferView":2,"byteOffset":384,"componentType":5123,"count":156,"type":"SCALAR"},{"bufferView":2,"byteOffset":696,"componentType":5123,"count":228,"type":"SCALAR"},{"bufferView":2,"byteOffset":1152,"componentType":5123,"count":192,"type":"SCALAR"},{"bufferView":2,"byteOffset":1536,"componentType":5123,"count":258,"type":"SCALAR"},{"bufferView":2,"byteOffset":2052,"componentType":5123,"count":159,"type":"SCALAR"},{"bufferView":2,"byteOffset":2372,"componentType":5123,"count":156,"type":"SCALAR"},{"bufferView":2,"byteOffset":2684,"componentType":5123,"count":156,"type":"SCALAR"},{"bufferView":2,"byteOffset":2996,"componentType":5123,"count":156,"type":"SCALAR"},{"bufferView":2,"byteOffset":3308,"componentType":5123,"count":72,"type":"SCALAR"},{"bufferView":2,"byteOffset":3452,"componentType":5123,"count":156,"type":"SCALAR"},{"bufferView":2,"byteOffset":3764,"componentType":5123,"count":156,"type":"SCALAR"},{"bufferView":2,"byteOffset":4076,"componentType":5123,"count":192,"type":"SCALAR"},{"bufferView":2,"byteOffset":4460,"componentType":5123,"count":228,"type":"SCALAR"},{"bufferView":2,"byteOffset":4916,"componentType":5123,"count":156,"type":"SCALAR"},{"bufferView":2,"byteOffset":5228,"componentType":5123,"count":1176,"type":"SCALAR"},{"bufferView":2,"byteOffset":7580,"componentType":5123,"count":84,"type":"SCALAR"},{"bufferView":2,"byteOffset":7748,"componentType":5123,"count":192,"type":"SCALAR"},{"bufferView":2,"byteOffset":8132,"componentType":5123,"count":258,"type":"SCALAR"},{"bufferView":2,"byteOffset":8648,"componentType":5123,"count":171,"type":"SCALAR"},{"bufferView":2,"byteOffset":8992,"componentType":5123,"count":156,"type":"SCALAR"},{"bufferView":2,"byteOffset":9304,"componentType":5123,"count":228,"type":"SCALAR"},{"bufferView":2,"byteOffset":9760,"componentType":5123,"count":192,"type":"SCALAR"},{"bufferView":2,"byteOffset":10144,"componentType":5123,"count":192,"type":"SCALAR"}],"asset":{"generator":"Open CASCADE Technology 7.6 [dev.opencascade.org]","version":"2.0"},"bufferViews":[{"buffer":0,"byteLength":19068,"byteOffset":0,"byteStride":12,"target":34962},{"buffer":0,"byteLength":19068,"byteOffset":19068,"byteStride":12,"target":34962},{"buffer":0,"byteLength":10528,"byteOffset":38136,"target":34963}],"buffers":[{"byteLength":48664,"uri":"weapon_blaster.bin"}],"materials":[{"name":"mat_0","pbrMetallicRoughness":{"baseColorFactor":[0.6038273572921753,0.6038273572921753,0.6038273572921753,1.0]},"doubleSided":true}],"meshes":[{"name":"blaster","primitives":[{"attributes":{"NORMAL":24,"POSITION":0},"indices":48,"material":0,"mode":4},{"attributes":{"NORMAL":25,"POSITION":1},"indices":49,"material":0,"mode":4},{"attributes":{"NORMAL":26,"POSITION":2},"indices":50,"material":0,"mode":4},{"attributes":{"NORMAL":27,"POSITION":3},"indices":51,"material":0,"mode":4},{"attributes":{"NORMAL":28,"POSITION":4},"indices":52,"material":0,"mode":4},{"attributes":{"NORMAL":29,"POSITION":5},"indices":53,"material":0,"mode":4},{"attributes":{"NORMAL":30,"POSITION":6},"indices":54,"material":0,"mode":4},{"attributes":{"NORMAL":31,"POSITION":7},"indices":55,"material":0,"mode":4},{"attributes":{"NORMAL":32,"POSITION":8},"indices":56,"material":0,"mode":4},{"attributes":{"NORMAL":33,"POSITION":9},"indices":57,"material":0,"mode":4},{"attributes":{"NORMAL":34,"POSITION":10},"indices":58,"material":0,"mode":4},{"attributes":{"NORMAL":35,"POSITION":11},"indices":59,"material":0,"mode":4},{"attributes":{"NORMAL":36,"POSITION":12},"indices":60,"material":0,"mode":4},{"attributes":{"NORMAL":37,"POSITION":13},"indices":61,"material":0,"mode":4},{"attributes":{"NORMAL":38,"POSITION":14},"indices":62,"material":0,"mode":4},{"attributes":{"NORMAL":39,"POSITION":15},"indices":63,"material":0,"mode":4},{"attributes":{"NORMAL":40,"POSITION":16},"indices":64,"material":0,"mode":4},{"attributes":{"NORMAL":41,"POSITION":17},"indices":65,"material":0,"mode":4},{"attributes":{"NORMAL":42,"POSITION":18},"indices":66,"material":0,"mode":4},{"attributes":{"NORMAL":43,"POSITION":19},"indices":67,"material":0,"mode":4},{"attributes":{"NORMAL":44,"POSITION":20},"indices":68,"material":0,"mode":4},{"attributes":{"NORMAL":45,"POSITION":21},"indices":69,"material":0,"mode":4},{"attributes":{"NORMAL":46,"POSITION":22},"indices":70,"material":0,"mode":4},{"attributes":{"NORMAL":47,"POSITION":23},"indices":71,"material":0,"mode":4}]}],"nodes":[{"mesh":0,"name":"blaster"}],"scene":0,"scenes":[{"nodes":[0]}]}