{"accessors":[{"bufferView":0,"byteOffset":0,"componentType":5126,"count":8,"max":[1.125,0.0251,0.0],"min":[1.0679767053650767,0.0249,-0.353625164259497],"type":"VEC3"},{"bufferView":0,"byteOffset":96,"componentType":5126,"count":28,"max":[1.125,0.0249,0.0],"min":[0.08838834764831805,0.0,-0.4368050810977209],"type":"VEC3"},{"bufferView":0,"byteOffset":432,"componentType":5126,"count":16,"max":[1.0679767053650767,0.04482334351847841,-0.23539432764659763],"min":[0.23539432764659783,0.005176656481521585,-0.4368050810978139],"type":"VEC3"},{"bufferView":0,"byteOffset":624,"componentType":5126,"count":28,"max":[1.125,0.05,0.0],"min":[0.08838834764831848,0.0251,-0.4368050810978139],"type":"VEC3"},{"bufferView":0,"byteOffset":960,"componentType":5126,"count":8,"max":[1.125,0.0251,0.12037640137559251],"min":[1.1185412473359498,0.0249,0.0],"type":"VEC3"},{"bufferView":0,"byteOffset":1056,"componentType":5126,"count":6,"max":[1.125,0.0249,0.12037640137559251],"min":[0.9755451802180283,0.02117857498742892,0.0],"type":"VEC3"},{"bufferView":0,"byteOffset":1128,"componentType":5126,"count":16,"max":[1.1185412473359498,0.042463217237262918,0.12037640137559251],"min":[0.41910146388891997,0.007536782762737083,-0.10845520958657061],"type":"VEC3"},{"bufferView":0,"byteOffset":1320,"componentType":5126,"count":8,"max":[0.41910146388891997,0.05,0.015],"min":[0.045,0.0,-0.08524018513633697],"type":"VEC3"},{"bufferView":0,"byteOffset":1416,"componentType":5126,"count":32,"max":[0.12483645652587919,0.0,0.12456338613372189],"min":[-0.12483645652587877,0.0,-0.12456338613372188],"type":"VEC3"},{"bufferView":0,"byteOffset":1800,"componentType":5126,"count":6,"max":[0.23539432764659783,0.05,-0.045],"min":[0.045,0.0,-0.23539432764659763],"type":"VEC3"},{"bufferView":0,"byteOffset":1872,"componentType":5126,"count":6,"max":[1.125,0.028821425012571086,0.12037640137559251],"min":[0.9755451802180283,0.0251,0.0],"type":"VEC3"},{"bufferView":0,"byteOffset":1944,"componentType":5126,"count":32,"max":[0.12483645652587885,0.05,0.12456338613372192],"min":[-0.12483645652587885,0.05,-0.1245633861337219],"type":"VEC3"},{"bufferView":0,"byteOffset":2328,"componentType":5126,"count":6,"max":[0.3050834883017104,0.05,0.08468916065511269],"min":[0.045,0.0,0.015],"type":"VEC3"},{"bufferView":0,"byteOffset":2400,"componentType":5126,"count":28,"max":[0.8238907647319902,0.0249,1.0262645264193489],"min":[0.07210625695092497,0.0,0.03508920801813167],"type":"VEC3"},{"bufferView":0,"byteOffset":2736,"componentType":5126,"count":8,"max":[0.2888612787525833,0.05,0.318861278752583],"min":[0.015,0.0,0.045],"type":"VEC3"},{"bufferView":0,"byteOffset":2832,"componentType":5126,"count":6,"max":[0.08468916065511269,0.05,0.30508348830171047],"min":[0.015,0.0,0.045],"type":"VEC3"},{"bufferView":0,"byteOffset":2904,"componentType":5126,"count":26,"max":[0.10781617776839056,0.0249,1.097002343474199],"min":[-0.6516615380450681,0.0,0.1085276422555138],"type":"VEC3"},{"bufferView":0,"byteOffset":3216,"componentType":5126,"count":8,"max":[-0.045,0.05,0.41910146388892],"min":[-0.14524018513633697,0.0,0.045],"type":"VEC3"},{"bufferView":0,"byteOffset":3312,"componentType":5126,"count":6,"max":[-0.045,0.05,0.23539432764659763],"min":[-0.23539432764659783,0.0,0.045],"type":"VEC3"},{"bufferView":0,"byteOffset":3384,"componentType":5126,"count":26,"max":[-0.0883883476483187,0.0249,0.4368181840213809],"min":[-1.1243065193874947,0.0,-0.12037640137559237],"type":"VEC3"},{"bufferView":0,"byteOffset":3696,"componentType":5126,"count":8,"max":[-0.045,0.05,0.08524018513633684],"min":[-0.41910146388892008,0.0,-0.015],"type":"VEC3"},{"bufferView":0,"byteOffset":3792,"componentType":5126,"count":6,"max":[-0.045,0.05,-0.015],"min":[-0.30508348830171036,0.0,-0.08468916065511278],"type":"VEC3"},{"bufferView":0,"byteOffset":3864,"componentType":5126,"count":28,"max":[-0.07210625695092503,0.0249,-0.03508920801813173],"min":[-0.8238907647319902,0.0,-1.0262645264193493],"type":"VEC3"},{"bufferView":0,"byteOffset":4200,"componentType":5126,"count":8,"max":[-0.015,0.05,-0.045],"min":[-0.28886127875258307,0.0,-0.3188612787525831],"type":"VEC3"},{"bufferView":0,"byteOffset":4296,"componentType":5126,"count":6,"max":[-0.015,0.05,-0.045],"min":[-0.08468916065511252,0.0,-0.30508348830171047],"type":"VEC3"},{"bufferView":0,"byteOffset":4368,"componentType":5126,"count":26,"max":[0.6516615380450683,0.0249,-0.10852764225551387],"min":[-0.10791342394200206,0.0,-1.097002343474199],"type":"VEC3"},{"bufferView":0,"byteOffset":4680,"componentType":5126,"count":8,"max":[0.14524018513633689,0.05,-0.045],"min":[0.045,0.0,-0.41910146388892],"type":"VEC3"},{"bufferView":0,"byteOffset":4776,"componentType":5126,"count":28,"max":[0.8238907647319902,0.05,1.0262645264193489],"min":[0.07210625695092174,0.0251,0.03508920801813234],"type":"VEC3"},{"bufferView":0,"byteOffset":5112,"componentType":5126,"count":26,"max":[0.10781617776840132,0.05,1.097002343474199],"min":[-0.6516615380450681,0.0251,0.10852764225551166],"type":"VEC3"},{"bufferView":0,"byteOffset":5424,"componentType":5126,"count":26,"max":[-0.08838834764831849,0.05,0.4368181840213277],"min":[-1.1243065193874947,0.0251,-0.12037640137559237],"type":"VEC3"},{"bufferView":0,"byteOffset":5736,"componentType":5126,"count":28,"max":[-0.07210625695092171,0.05,-0.03508920801813244],"min":[-0.8238907647319902,0.0251,-1.0262645264193493],"type":"VEC3"},{"bufferView":0,"byteOffset":6072,"componentType":5126,"count":26,"max":[0.6516615380450683,0.05,-0.10852764225551168],"min":[-0.10791342394185037,0.0251,-1.097002343474199],"type":"VEC3"},{"bufferView":0,"byteOffset":6384,"componentType":5126,"count":16,"max":[0.8238907647319902,0.04522866340115364,0.7660476537326751],"min":[0.3050834883017104,0.004771336598846366,0.08468916065511269],"type":"VEC3"},{"bufferView":0,"byteOffset":6576,"componentType":5126,"count":14,"max":[0.4909114210049505,0.042399324454312017,1.0262645264193489],"min":[0.2888612787525833,0.007600675545688036,0.318861278752583],"type":"VEC3"},{"bufferView":0,"byteOffset":6744,"componentType":5126,"count":8,"max":[0.8238907647319902,0.0251,1.0262645264193489],"min":[0.4608753864259511,0.0249,0.7660476537326751],"type":"VEC3"},{"bufferView":0,"byteOffset":6840,"componentType":5126,"count":16,"max":[0.10781617776840132,0.04522866340115364,1.097002343474199],"min":[-0.24942104644980496,0.004771336598846364,0.30508348830171047],"type":"VEC3"},{"bufferView":0,"byteOffset":7032,"componentType":5126,"count":14,"max":[-0.14524018513633697,0.04206798862904768,0.9170399336085294],"min":[-0.6516615380450681,0.007932011370952312,0.41910146388892],"type":"VEC3"},{"bufferView":0,"byteOffset":7200,"componentType":5126,"count":8,"max":[-0.24942104644980496,0.0251,1.097002343474199],"min":[-0.6516615380450681,0.0249,0.9170399336085294],"type":"VEC3"},{"bufferView":0,"byteOffset":7296,"componentType":5126,"count":16,"max":[-0.23539432764659783,0.04482334351847841,0.4368181840213809],"min":[-1.0679767053650767,0.005176656481521586,0.23539432764659763],"type":"VEC3"},{"bufferView":0,"byteOffset":7488,"componentType":5126,"count":14,"max":[-0.41910146388892008,0.04246321723726291,0.10890516642059828],"min":[-1.1185412473359498,0.007536782762737087,-0.12037640137559237],"type":"VEC3"},{"bufferView":0,"byteOffset":7656,"componentType":5126,"count":8,"max":[-1.0679767053650767,0.0251,0.35362516425949716],"min":[-1.1243065193874947,0.0249,-0.12037640137559237],"type":"VEC3"},{"bufferView":0,"byteOffset":7752,"componentType":5126,"count":16,"max":[-0.30508348830171036,0.04522866340115367,-0.08468916065511278],"min":[-0.8238907647319902,0.004771336598846363,-0.766047653732675],"type":"VEC3"},{"bufferView":0,"byteOffset":7944,"componentType":5126,"count":14,"max":[-0.28886127875258307,0.042399324454311968,-0.3188612787525831],"min":[-0.4908317033143177,0.007600675545688032,-1.0262645264193493],"type":"VEC3"},{"bufferView":0,"byteOffset":8112,"componentType":5126,"count":8,"max":[-0.46087538642595007,0.0251,-0.766047653732675],"min":[-0.8238907647319902,0.0249,-1.0262645264193493],"type":"VEC3"},{"bufferView":0,"byteOffset":8208,"componentType":5126,"count":16,"max":[0.2494210464498053,0.04522866340115364,-0.30508348830171047],"min":[-0.10791342394200206,0.004771336598846364,-1.097002343474199],"type":"VEC3"},{"bufferView":0,"byteOffset":8400,"componentType":5126,"count":14,"max":[0.6516615380450683,0.04206798862904769,-0.41910146388892],"min":[0.14524018513633689,0.00793201137095231,-0.9170399336085294],"type":"VEC3"},{"bufferView":0,"byteOffset":8568,"componentType":5126,"count":8,"max":[0.6516615380450683,0.0251,-0.9170399336085294],"min":[0.2494210464498053,0.0249,-1.097002343474199],"type":"VEC3"},{"bufferView":1,"byteOffset":0,"componentType":5126,"count":8,"type":"VEC3"},{"bufferView":1,"byteOffset":96,"componentType":5126,"count":28,"type":"VEC3"},{"bufferView":1,"byteOffset":432,"componentType":5126,"count":16,"type":"VEC3"},{"bufferView":1,"byteOffset":624,"componentType":5126,"count":28,"type":"VEC3"},{"bufferView":1,"byteOffset":960,"componentType":5126,"count":8,"type":"VEC3"},{"bufferView":1,"byteOffset":1056,"componentType":5126,"count":6,"type":"VEC3"},{"bufferView":1,"byteOffset":1128,"componentType":5126,"count":16,"type":"VEC3"},{"bufferView":1,"byteOffset":1320,"componentType":5126,"count":8,"type":"VEC3"},{"bufferView":1,"byteOffset":1416,"componentType":5126,"count":32,"type":"VEC3"},{"bufferView":1,"byteOffset":1800,"componentType":5126,"count":6,"type":"VEC3"},{"bufferView":1,"byteOffset":1872,"componentType":5126,"count":6,"type":"VEC3"},{"bufferView":1,"byteOffset":1944,"componentType":5126,"count":32,"type":"VEC3"},{"bufferView":1,"byteOffset":2328,"componentType":5126,"count":6,"type":"VEC3"},{"bufferView":1,"byteOffset":2400,"componentType":5126,"count":28,"type":"VEC3"},{"bufferView":1,"byteOffset":2736,"componentType":5126,"count":8,"type":"VEC3"},{"bufferView":1,"byteOffset":2832,"componentType":5126,"count":6,"type":"VEC3"},{"bufferView":1,"byteOffset":2904,"componentType":5126,"count":26,"type":"VEC3"},{"bufferView":1,"byteOffset":3216,"componentType":5126,"count":8,"type":"VEC3"},{"bufferView":1,"byteOffset":3312,"componentType":5126,"count":6,"type":"VEC3"},{"bufferView":1,"byteOffset":3384,"componentType":5126,"count":26,"type":"VEC3"},{"bufferView":1,"byteOffset":3696,"componentType":5126,"count":8,"type":"VEC3"},{"bufferView":1,"byteOffset":3792,"componentType":5126,"count":6,"type":"VEC3"},{"bufferView":1,"byteOffset":3864,"componentType":5126,"count":28,"type":"VEC3"},{"bufferView":1,"byteOffset":4200,"componentType":5126,"count":8,"type":"VEC3"},{"bufferView":1,"byteOffset":4296,"componentType":5126,"count":6,"type":"VEC3"},{"bufferView":1,"byteOffset":4368,"componentType":5126,"count":26,"type":"VEC3"},{"bufferView":1,"byteOffset":4680,"componentType":5126,"count":8,"type":"VEC3"},{"bufferView":1,"byteOffset":4776,"componentType":5126,"count":28,"type":"VEC3"},{"bufferView":1,"byteOffset":5112,"componentType":5126,"count":26,"type":"VEC3"},{"bufferView":1,"byteOffset":5424,"componentType":5126,"count":26,"type":"VEC3"},{"bufferView":1,"byteOffset":5736,"componentType":5126,"count":28,"type":"VEC3"},{"bufferView":1,"byteOffset":6072,"componentType":5126,"count":26,"type":"VEC3"},{"bufferView":1,"byteOffset":6384,"componentType":5126,"count":16,"type":"VEC3"},{"bufferView":1,"byteOffset":6576,"componentType":5126,"count":14,"type":"VEC3"},{"bufferView":1,"byteOffset":6744,"componentType":5126,"count":8,"type":"VEC3"},{"bufferView":1,"byteOffset":6840,"componentType":5126,"count":16,"type":"VEC3"},{"bufferView":1,"byteOffset":7032,"componentType":5126,"count":14,"type":"VEC3"},{"bufferView":1,"byteOffset":7200,"componentType":5126,"count":8,"type":"VEC3"},{"bufferView":1,"byteOffset":7296,"componentType":5126,"count":16,"type":"VEC3"},{"bufferView":1,"byteOffset":7488,"componentType":5126,"count":14,"type":"VEC3"},{"bufferView":1,"byteOffset":7656,"componentType":5126,"count":8,"type":"VEC3"},{"bufferView":1,"byteOffset":7752,"componentType":5126,"count":16,"type":"VEC3"},{"bufferView":1,"byteOffset":7944,"componentType":5126,"count":14,"type":"VEC3"},{"bufferView":1,"byteOffset":8112,"componentType":5126,"count":8,"type":"VEC3"},{"bufferView":1,"byteOffset":8208,"componentType":5126,"count":16,"type":"VEC3"},{"bufferView":1,"byteOffset":8400,"componentType":5126,"count":14,"type":"VEC3"},{"bufferView":1,"byteOffset":8568,"componentType":5126,"count":8,"type":"VEC3"},{"bufferView":2,"byteOffset":0,"componentType":5123,"count":18,"type":"SCALAR"},{"bufferView":2,"byteOffset":36,"componentType":5123,"count":96,"type":"SCALAR"},{"bufferView":2,"byteOffset":228,"componentType":5123,"count":42,"type":"SCALAR"},{"bufferView":2,"byteOffset":312,"componentType":5123,"count":96,"type":"SCALAR"},{"bufferView":2,"byteOffset":504,"componentType":5123,"count":18,"type":"SCALAR"},{"bufferView":2,"byteOffset":540,"componentType":5123,"count":12,"type":"SCALAR"},{"bufferView":2,"byteOffset":564,"componentType":5123,"count":42,"type":"SCALAR"},{"bufferView":2,"byteOffset":648,"componentType":5123,"count":18,"type":"SCALAR"},{"bufferView":2,"byteOffset":684,"componentType":5123,"count":90,"type":"SCALAR"},{"bufferView":2,"byteOffset":864,"componentType":5123,"count":12,"type":"SCALAR"},{"bufferView":2,"byteOffset":888,"componentType":5123,"count":12,"type":"SCALAR"},{"bufferView":2,"byteOffset":912,"componentType":5123,"count":90,"type":"SCALAR"},{"bufferView":2,"byteOffset":1092,"componentType":5123,"count":12,"type":"SCALAR"},{"bufferView":2,"byteOffset":1116,"componentType":5123,"count":96,"type":"SCALAR"},{"bufferView":2,"byteOffset":1308,"componentType":5123,"count":18,"type":"SCALAR"},{"bufferView":2,"byteOffset":1344,"componentType":5123,"count":12,"type":"SCALAR"},{"bufferView":2,"byteOffset":1368,"componentType":5123,"count":81,"type":"SCALAR"},{"bufferView":2,"byteOffset":1532,"componentType":5123,"count":18,"type":"SCALAR"},{"bufferView":2,"byteOffset":1568,"componentType":5123,"count":12,"type":"SCALAR"},{"bufferView":2,"byteOffset":1592,"componentType":5123,"count":84,"type":"SCALAR"},{"bufferView":2,"byteOffset":1760,"componentType":5123,"count":18,"type":"SCALAR"},{"bufferView":2,"byteOffset":1796,"componentType":5123,"count":12,"type":"SCALAR"},{"bufferView":2,"byteOffset":1820,"componentType":5123,"count":96,"type":"SCALAR"},{"bufferView":2,"byteOffset":2012,"componentType":5123,"count":18,"type":"SCALAR"},{"bufferView":2,"byteOffset":2048,"componentType":5123,"count":12,"type":"SCALAR"},{"bufferView":2,"byteOffset":2072,"componentType":5123,"count":81,"type":"SCALAR"},{"bufferView":2,"byteOffset":2236,"componentType":5123,"count":18,"type":"SCALAR"},{"bufferView":2,"byteOffset":2272,"componentType":5123,"count":96,"type":"SCALAR"},{"bufferView":2,"byteOffset":2464,"componentType":5123,"count":81,"type":"SCALAR"},{"bufferView":2,"byteOffset":2628,"componentType":5123,"count":84,"type":"SCALAR"},{"bufferView":2,"byteOffset":2796,"componentType":5123,"count":96,"type":"SCALAR"},{"bufferView":2,"byteOffset":2988,"componentType":5123,"count":81,"type":"SCALAR"},{"bufferView":2,"byteOffset":3152,"componentType":5123,"count":42,"type":"SCALAR"},{"bufferView":2,"byteOffset":3236,"componentType":5123,"count":36,"type":"SCALAR"},{"bufferView":2,"byteOffset":3308,"componentType":5123,"count":18,"type":"SCALAR"},{"bufferView":2,"byteOffset":3344,"componentType":5123,"count":42,"type":"SCALAR"},{"bufferView":2,"byteOffset":3428,"componentType":5123,"count":36,"type":"SCALAR"},{"bufferView":2,"byteOffset":3500,"componentType":5123,"count":18,"type":"SCALAR"},{"bufferView":2,"byteOffset":3536,"componentType":5123,"count":42,"type":"SCALAR"},{"bufferView":2,"byteOffset":3620,"componentType":5123,"count":36,"type":"SCALAR"},{"bufferView":2,"byteOffset":3692,"componentType":5123,"count":18,"type":"SCALAR"},{"bufferView":2,"byteOffset":3728,"componentType":5123,"count":42,"type":"SCALAR"},{"bufferView":2,"byteOffset":3812,"componentType":5123,"count":36,"type":"SCALAR"},{"bufferView":2,"byteOffset":3884,"componentType":5123,"count":18,"type":"SCALAR"},{"bufferView":2,"byteOffset":3920,"componentType":5123,"count":42,"type":"SCALAR"},{"bufferView":2,"byteOffset":4004,"componentType":5123,"count":36,"type":"SCALAR"},{"bufferView":2,"byteOffset":4076,"componentType":5123,"count":18,"type":"SCALAR"}],"asset":{"generator":"Open CASCADE Technology 7.6 [dev.opencascade.org]","version":"2.0"},"bufferViews":[{"buffer":0,"byteLength":8664,"byteOffset":0,"byteStride":12,"target":34962},{"buffer":0,"byteLength":8664,"byteOffset":8664,"byteStride":12,"target":34962},{"buffer":0,"byteLength":4112,"byteOffset":17328,"target":34963}],"buffers":[{"byteLength":21440,"uri":"weapon_blade_v2.bin"}],"materials":[{"name":"mat_0","pbrMetallicRoughness":{"baseColorFactor":[0.6038273572921753,0.6038273572921753,0.6038273572921753,1.0]},"doubleSided":true},{"name":"mat_1","pbrMetallicRoughness":{"baseColorFactor":[1.0,1.0,1.0,1.0]},"doubleSided":true}],"meshes":[{"name":"Cutout011","primitives":[{"attributes":{"NORMAL":47,"POSITION":0},"indices":94,"material":0,"mode":4},{"attributes":{"NORMAL":48,"POSITION":1},"indices":95,"material":1,"mode":4},{"attributes":{"NORMAL":49,"POSITION":2},"indices":96,"material":1,"mode":4},{"attributes":{"NORMAL":50,"POSITION":3},"indices":97,"material":1,"mode":4},{"attributes":{"NORMAL":51,"POSITION":4},"indices":98,"material":0,"mode":4},{"attributes":{"NORMAL":52,"POSITION":5},"indices":99,"material":1,"mode":4},{"attributes":{"NORMAL":53,"POSITION":6},"indices":100,"material":1,"mode":4},{"attributes":{"NORMAL":54,"POSITION":7},"indices":101,"material":1,"mode":4},{"attributes":{"NORMAL":55,"POSITION":8},"indices":102,"material":1,"mode":4},{"attributes":{"NORMAL":56,"POSITION":9},"indices":103,"material":1,"mode":4},{"attributes":{"NORMAL":57,"POSITION":10},"indices":104,"material":1,"mode":4},{"attributes":{"NORMAL":58,"POSITION":11},"indices":105,"material":1,"mode":4},{"attributes":{"NORMAL":59,"POSITION":12},"indices":106,"material":1,"mode":4},{"attributes":{"NORMAL":60,"POSITION":13},"indices":107,"material":1,"mode":4},{"attributes":{"NORMAL":61,"POSITION":14},"indices":108,"material":1,"mode":4},{"attributes":{"NORMAL":62,"POSITION":15},"indices":109,"material":1,"mode":4},{"attributes":{"NORMAL":63,"POSITION":16},"indices":110,"material":1,"mode":4},{"attributes":{"NORMAL":64,"POSITION":17},"indices":111,"material":1,"mode":4},{"attributes":{"NORMAL":65,"POSITION":18},"indices":112,"material":1,"mode":4},{"attributes":{"NORMAL":66,"POSITION":19},"indices":113,"material":1,"mode":4},{"attributes":{"NORMAL":67,"POSITION":20},"indices":114,"material":1,"mode":4},{"attributes":{"NORMAL":68,"POSITION":21},"indices":115,"material":1,"mode":4},{"attributes":{"NORMAL":69,"POSITION":22},"indices":116,"material":1,"mode":4},{"attributes":{"NORMAL":70,"POSITION":23},"indices":117,"material":1,"mode":4},{"attributes":{"NORMAL":71,"POSITION":24},"indices":118,"material":1,"mode":4},{"attributes":{"NORMAL":72,"POSITION":25},"indices":119,"material":1,"mode":4},{"attributes":{"NORMAL":73,"POSITION":26},"indices":120,"material":1,"mode":4},{"attributes":{"NORMAL":74,"POSITION":27},"indices":121,"material":1,"mode":4},{"attributes":{"NORMAL":75,"POSITION":28},"indices":122,"material":1,"mode":4},{"attributes":{"NORMAL":76,"POSITION":29},"indices":123,"material":1,"mode":4},{"attributes":{"NORMAL":77,"POSITION":30},"indices":124,"material":1,"mode":4},{"attributes":{"NORMAL":78,"POSITION":31},"indices":125,"material":1,"mode":4},{"attributes":{"NORMAL":79,"POSITION":32},"indices":126,"material":1,"mode":4},{"attributes":{"NORMAL":80,"POSITION":33},"indices":127,"material":1,"mode":4},{"attributes":{"NORMAL":81,"POSITION":34},"indices":128,"material":0,"mode":4},{"attributes":{"NORMAL":82,"POSITION":35},"indices":129,"material":1,"mode":4},{"attributes":{"NORMAL":83,"POSITION":36},"indices":130,"material":1,"mode":4},{"attributes":{"NORMAL":84,"POSITION":37},"indices":131,"material":0,"mode":4},{"attributes":{"NORMAL":85,"POSITION":38},"indices":132,"material":1,"mode":4},{"attributes":{"NORMAL":86,"POSITION":39},"indices":133,"material":1,"mode":4},{"attributes":{"NORMAL":87,"POSITION":40},"indices":134,"material":0,"mode":4},{"attributes":{"NORMAL":88,"POSITION":41},"indices":135,"material":1,"mode":4},{"attributes":{"NORMAL":89,"POSITION":42},"indices":136,"material":1,"mode":4},{"attributes":{"NORMAL":90,"POSITION":43},"indices":137,"material":0,"mode":4},{"attributes":{"NORMAL":91,"POSITION":44},"indices":138,"material":1,"mode":4},{"attributes":{"NORMAL":92,"POSITION":45},"indices":139,"material":1,"mode":4},{"attributes":{"NORMAL":93,"POSITION":46},"indices":140,"material":0,"mode":4}]}],"nodes":[{"mesh":0,"name":"Cutout011"}],"scene":0,"scenes":[{"nodes":[0]}]}