{"accessors":[{"bufferView":0,"byteOffset":0,"componentType":5126,"count":5,"max":[-0.5847115648147424,1.2750026222591507,-0.0012235881216426084],"min":[-0.5850000000000046,1.27499914066148,-0.0015119975068715087],"type":"VEC3"},{"bufferView":0,"byteOffset":60,"componentType":5126,"count":163,"max":[-0.585,1.3649959603139923,-0.001025935365484241],"min":[-0.7576234356270493,1.2520053981722044,-0.11996922661858543],"type":"VEC3"},{"bufferView":0,"byteOffset":2016,"componentType":5126,"count":13,"max":[-0.5845575662852931,1.275000778456851,-0.0006271102608563165],"min":[-0.5850000000000046,1.2749987892341164,-0.0012248489341409924],"type":"VEC3"},{"bufferView":0,"byteOffset":2172,"componentType":5126,"count":344,"max":[-0.15328100665587564,0.6,0.44541964884641979],"min":[-1.0494346495153695,-0.3,-0.44541964884641979],"type":"VEC3"},{"bufferView":0,"byteOffset":6300,"componentType":5126,"count":64,"max":[0.7500000000000002,1.59,0.3587704174824012],"min":[0.7499999999999999,0.87,-0.3587704174824012],"type":"VEC3"},{"bufferView":0,"byteOffset":7068,"componentType":5126,"count":13,"max":[-0.5837083602253135,1.275040097846827,0.0007686760922180301],"min":[-0.5850000000000046,1.2749970326447738,-0.0018148706554325864],"type":"VEC3"},{"bufferView":0,"byteOffset":7224,"componentType":5126,"count":64,"max":[0.9600000000000003,1.59,0.3587704174824012],"min":[0.9599999999999999,0.87,-0.3587704174824012],"type":"VEC3"},{"bufferView":0,"byteOffset":7992,"componentType":5126,"count":62,"max":[0.6000000000000001,1.545,0.3127032953408871],"min":[-0.35163842213548177,0.9149999999999982,-0.31270329534088706],"type":"VEC3"},{"bufferView":0,"byteOffset":8736,"componentType":5126,"count":10,"max":[-0.583680491434349,1.3649861560885182,0.0008931954874764822],"min":[-0.585,1.2750101941809676,-0.00044355823923664074],"type":"VEC3"},{"bufferView":0,"byteOffset":8856,"componentType":5126,"count":58,"max":[1.545,1.5000000000000005,0.2685209117494338],"min":[1.215,0.96,-0.26852091174943379],"type":"VEC3"},{"bufferView":0,"byteOffset":9552,"componentType":5126,"count":64,"max":[0.6600000000000003,1.59,0.3587704174824012],"min":[0.6599999999999999,0.87,-0.3587704174824012],"type":"VEC3"},{"bufferView":0,"byteOffset":10320,"componentType":5126,"count":14,"max":[-0.5528450867969927,1.3649851484434399,0.03036875264302213],"min":[-0.5838645619096614,1.2750101941809676,-0.00044355823923664074],"type":"VEC3"},{"bufferView":0,"byteOffset":10488,"componentType":5126,"count":54,"max":[1.17,1.5,0.2680313960064747],"min":[-0.26026334038989937,0.9599999999999993,-0.26803139600647465],"type":"VEC3"},{"bufferView":0,"byteOffset":11136,"componentType":5126,"count":326,"max":[-0.7133924503397872,1.3322322544453356,0.4698624945410024],"min":[-1.0531697808411067,0.25587524712580259,0.11589832177779189],"type":"VEC3"},{"bufferView":0,"byteOffset":15048,"componentType":5126,"count":61,"max":[1.545,1.5284607970175688,0.29961495215131586],"min":[1.545,0.9300000000000003,-0.29961495215131586],"type":"VEC3"},{"bufferView":0,"byteOffset":15780,"componentType":5126,"count":64,"max":[0.6000000000000002,1.59,0.3587704174824012],"min":[0.5999999999999999,0.87,-0.3587704174824012],"type":"VEC3"},{"bufferView":0,"byteOffset":16548,"componentType":5126,"count":64,"max":[0.9000000000000002,1.59,0.3587704174824012],"min":[0.8999999999999999,0.87,-0.3587704174824012],"type":"VEC3"},{"bufferView":0,"byteOffset":17316,"componentType":5126,"count":32,"max":[-0.12,1.5,0.2680313960064746],"min":[-0.26026334038989937,0.9599999999999993,4.6472078574484696e-17],"type":"VEC3"},{"bufferView":0,"byteOffset":17700,"componentType":5126,"count":61,"max":[1.2,1.545,0.3145328159378273],"min":[0.9599999999999999,0.915,-0.3138299192219528],"type":"VEC3"},{"bufferView":0,"byteOffset":18432,"componentType":5126,"count":93,"max":[-0.5528450867969927,1.3649985796956604,0.06309367504738547],"min":[-0.585,1.2749987892341164,-0.0014234701761598596],"type":"VEC3"},{"bufferView":0,"byteOffset":19548,"componentType":5126,"count":32,"max":[-0.12,1.5,8.082668874372532e-17],"min":[-0.26026334038989937,0.9599999999999993,-0.26803139600647465],"type":"VEC3"},{"bufferView":0,"byteOffset":19932,"componentType":5126,"count":70,"max":[1.3200000000000003,1.6034903602482145,0.37462239995299298],"min":[1.1999999999999989,0.855,-0.374622399952993],"type":"VEC3"},{"bufferView":0,"byteOffset":20772,"componentType":5126,"count":9,"max":[-0.7438910741101951,1.3232505565488753,-0.10768141412242068],"min":[-0.7576234356270493,1.2620546953326107,-0.11987596913459722],"type":"VEC3"},{"bufferView":0,"byteOffset":20880,"componentType":5126,"count":49,"max":[-0.639969107522153,1.345542617570112,-0.10649191210486377],"min":[-0.7573219414729652,1.2520053981722044,-0.11996922661858543],"type":"VEC3"},{"bufferView":0,"byteOffset":21468,"componentType":5126,"count":236,"max":[-0.3516384221354698,1.56,0.3288728826922011],"min":[-0.7728572078405801,0.9,-0.3288728826922011],"type":"VEC3"},{"bufferView":0,"byteOffset":24300,"componentType":5126,"count":443,"max":[-0.7137019484875303,1.4283866039881775,0.11999673861456324],"min":[-1.3045044348654685,0.17033637138212177,-0.11998702679426317],"type":"VEC3"},{"bufferView":0,"byteOffset":29616,"componentType":5126,"count":7,"max":[-0.5844022492306261,1.2749994976113473,-0.0009169242470167207],"min":[-0.5847115648147424,1.2749987892341164,-0.0012248489341409924],"type":"VEC3"},{"bufferView":0,"byteOffset":29700,"componentType":5126,"count":78,"max":[0.8100000000000003,1.59,0.3587704174824012],"min":[0.7499999999999999,0.87,-0.3587704174824012],"type":"VEC3"},{"bufferView":0,"byteOffset":30636,"componentType":5126,"count":14,"max":[-0.585,1.364952166178042,0.03122921212137874],"min":[-0.6149979400721386,1.275040097846827,0.0007686760922180301],"type":"VEC3"},{"bufferView":0,"byteOffset":30804,"componentType":5126,"count":72,"max":[1.3950000000000003,1.6034903602482152,0.37462239995299298],"min":[1.32,0.855,-0.374622399952993],"type":"VEC3"},{"bufferView":0,"byteOffset":31668,"componentType":5126,"count":64,"max":[0.8100000000000003,1.59,0.3587704174824012],"min":[0.8099999999999999,0.87,-0.3587704174824012],"type":"VEC3"},{"bufferView":0,"byteOffset":32436,"componentType":5126,"count":5,"max":[-0.5846647922266269,1.3649976829724509,-0.0014219969398923739],"min":[-0.585,1.364992165489954,-0.0017571566458601245],"type":"VEC3"},{"bufferView":0,"byteOffset":32496,"componentType":5126,"count":78,"max":[0.9600000000000003,1.59,0.3587704174824012],"min":[0.8999999999999999,0.87,-0.3587704174824012],"type":"VEC3"},{"bufferView":0,"byteOffset":33432,"componentType":5126,"count":78,"max":[0.6600000000000003,1.59,0.3587704174824012],"min":[0.5999999999999999,0.8700000000000001,-0.3587704174824012],"type":"VEC3"},{"bufferView":0,"byteOffset":34368,"componentType":5126,"count":94,"max":[1.545,1.6034903602482152,0.37462239995299298],"min":[1.395,0.8550000000000002,-0.374622399952993],"type":"VEC3"},{"bufferView":0,"byteOffset":35496,"componentType":5126,"count":54,"max":[0.9000000000000001,1.545,0.3127032953408871],"min":[0.8099999999999999,0.915,-0.312703295340887],"type":"VEC3"},{"bufferView":0,"byteOffset":36144,"componentType":5126,"count":338,"max":[-0.7135693096724687,1.3322915683510948,-0.11586941270659332],"min":[-1.0568815968924888,0.2559019890886888,-0.4663800849633758],"type":"VEC3"},{"bufferView":0,"byteOffset":40200,"componentType":5126,"count":54,"max":[1.215,1.5000000000000005,0.2680313960064747],"min":[1.17,0.96,-0.2680313960064746],"type":"VEC3"},{"bufferView":0,"byteOffset":40848,"componentType":5126,"count":61,"max":[-0.585,1.3649959603139923,0.03122921212137874],"min":[-0.6480383548132097,1.275000778456851,-0.0014219969398923739],"type":"VEC3"},{"bufferView":0,"byteOffset":41580,"componentType":5126,"count":54,"max":[0.7500000000000001,1.545,0.3127032953408871],"min":[0.6599999999999999,0.915,-0.312703295340887],"type":"VEC3"},{"bufferView":0,"byteOffset":42228,"componentType":5126,"count":4,"max":[-0.5843053181177259,1.3649985796956604,-0.0010656124499758185],"min":[-0.5846647922266269,1.3649976829724509,-0.0014234701761598596],"type":"VEC3"},{"bufferView":0,"byteOffset":42276,"componentType":5126,"count":16,"max":[-0.583680491434349,1.3649980751480926,-0.00038168219079681465],"min":[-0.585,1.27499914066148,-0.0017571566458601245],"type":"VEC3"},{"bufferView":1,"byteOffset":0,"componentType":5126,"count":5,"type":"VEC3"},{"bufferView":1,"byteOffset":60,"componentType":5126,"count":163,"type":"VEC3"},{"bufferView":1,"byteOffset":2016,"componentType":5126,"count":13,"type":"VEC3"},{"bufferView":1,"byteOffset":2172,"componentType":5126,"count":344,"type":"VEC3"},{"bufferView":1,"byteOffset":6300,"componentType":5126,"count":64,"type":"VEC3"},{"bufferView":1,"byteOffset":7068,"componentType":5126,"count":13,"type":"VEC3"},{"bufferView":1,"byteOffset":7224,"componentType":5126,"count":64,"type":"VEC3"},{"bufferView":1,"byteOffset":7992,"componentType":5126,"count":62,"type":"VEC3"},{"bufferView":1,"byteOffset":8736,"componentType":5126,"count":10,"type":"VEC3"},{"bufferView":1,"byteOffset":8856,"componentType":5126,"count":58,"type":"VEC3"},{"bufferView":1,"byteOffset":9552,"componentType":5126,"count":64,"type":"VEC3"},{"bufferView":1,"byteOffset":10320,"componentType":5126,"count":14,"type":"VEC3"},{"bufferView":1,"byteOffset":10488,"componentType":5126,"count":54,"type":"VEC3"},{"bufferView":1,"byteOffset":11136,"componentType":5126,"count":326,"type":"VEC3"},{"bufferView":1,"byteOffset":15048,"componentType":5126,"count":61,"type":"VEC3"},{"bufferView":1,"byteOffset":15780,"componentType":5126,"count":64,"type":"VEC3"},{"bufferView":1,"byteOffset":16548,"componentType":5126,"count":64,"type":"VEC3"},{"bufferView":1,"byteOffset":17316,"componentType":5126,"count":32,"type":"VEC3"},{"bufferView":1,"byteOffset":17700,"componentType":5126,"count":61,"type":"VEC3"},{"bufferView":1,"byteOffset":18432,"componentType":5126,"count":93,"type":"VEC3"},{"bufferView":1,"byteOffset":19548,"componentType":5126,"count":32,"type":"VEC3"},{"bufferView":1,"byteOffset":19932,"componentType":5126,"count":70,"type":"VEC3"},{"bufferView":1,"byteOffset":20772,"componentType":5126,"count":9,"type":"VEC3"},{"bufferView":1,"byteOffset":20880,"componentType":5126,"count":49,"type":"VEC3"},{"bufferView":1,"byteOffset":21468,"componentType":5126,"count":236,"type":"VEC3"},{"bufferView":1,"byteOffset":24300,"componentType":5126,"count":443,"type":"VEC3"},{"bufferView":1,"byteOffset":29616,"componentType":5126,"count":7,"type":"VEC3"},{"bufferView":1,"byteOffset":29700,"componentType":5126,"count":78,"type":"VEC3"},{"bufferView":1,"byteOffset":30636,"componentType":5126,"count":14,"type":"VEC3"},{"bufferView":1,"byteOffset":30804,"componentType":5126,"count":72,"type":"VEC3"},{"bufferView":1,"byteOffset":31668,"componentType":5126,"count":64,"type":"VEC3"},{"bufferView":1,"byteOffset":32436,"componentType":5126,"count":5,"type":"VEC3"},{"bufferView":1,"byteOffset":32496,"componentType":5126,"count":78,"type":"VEC3"},{"bufferView":1,"byteOffset":33432,"componentType":5126,"count":78,"type":"VEC3"},{"bufferView":1,"byteOffset":34368,"componentType":5126,"count":94,"type":"VEC3"},{"bufferView":1,"byteOffset":35496,"componentType":5126,"count":54,"type":"VEC3"},{"bufferView":1,"byteOffset":36144,"componentType":5126,"count":338,"type":"VEC3"},{"bufferView":1,"byteOffset":40200,"componentType":5126,"count":54,"type":"VEC3"},{"bufferView":1,"byteOffset":40848,"componentType":5126,"count":61,"type":"VEC3"},{"bufferView":1,"byteOffset":41580,"componentType":5126,"count":54,"type":"VEC3"},{"bufferView":1,"byteOffset":42228,"componentType":5126,"count":4,"type":"VEC3"},{"bufferView":1,"byteOffset":42276,"componentType":5126,"count":16,"type":"VEC3"},{"bufferView":2,"byteOffset":0,"componentType":5123,"count":9,"type":"SCALAR"},{"bufferView":2,"byteOffset":20,"componentType":5123,"count":762,"type":"SCALAR"},{"bufferView":2,"byteOffset":1544,"componentType":5123,"count":48,"type":"SCALAR"},{"bufferView":2,"byteOffset":1640,"componentType":5123,"count":1671,"type":"SCALAR"},{"bufferView":2,"byteOffset":4984,"componentType":5123,"count":192,"type":"SCALAR"},{"bufferView":2,"byteOffset":5368,"componentType":5123,"count":39,"type":"SCALAR"},{"bufferView":2,"byteOffset":5448,"componentType":5123,"count":192,"type":"SCALAR"},{"bufferView":2,"byteOffset":5832,"componentType":5123,"count":180,"type":"SCALAR"},{"bufferView":2,"byteOffset":6192,"componentType":5123,"count":24,"type":"SCALAR"},{"bufferView":2,"byteOffset":6240,"componentType":5123,"count":168,"type":"SCALAR"},{"bufferView":2,"byteOffset":6576,"componentType":5123,"count":192,"type":"SCALAR"},{"bufferView":2,"byteOffset":6960,"componentType":5123,"count":36,"type":"SCALAR"},{"bufferView":2,"byteOffset":7032,"componentType":5123,"count":156,"type":"SCALAR"},{"bufferView":2,"byteOffset":7344,"componentType":5123,"count":1683,"type":"SCALAR"},{"bufferView":2,"byteOffset":10712,"componentType":5123,"count":183,"type":"SCALAR"},{"bufferView":2,"byteOffset":11080,"componentType":5123,"count":192,"type":"SCALAR"},{"bufferView":2,"byteOffset":11464,"componentType":5123,"count":192,"type":"SCALAR"},{"bufferView":2,"byteOffset":11848,"componentType":5123,"count":123,"type":"SCALAR"},{"bufferView":2,"byteOffset":12096,"componentType":5123,"count":177,"type":"SCALAR"},{"bufferView":2,"byteOffset":12452,"componentType":5123,"count":417,"type":"SCALAR"},{"bufferView":2,"byteOffset":13288,"componentType":5123,"count":123,"type":"SCALAR"},{"bufferView":2,"byteOffset":13536,"componentType":5123,"count":204,"type":"SCALAR"},{"bufferView":2,"byteOffset":13944,"componentType":5123,"count":21,"type":"SCALAR"},{"bufferView":2,"byteOffset":13988,"componentType":5123,"count":201,"type":"SCALAR"},{"bufferView":2,"byteOffset":14392,"componentType":5123,"count":1032,"type":"SCALAR"},{"bufferView":2,"byteOffset":16456,"componentType":5123,"count":2346,"type":"SCALAR"},{"bufferView":2,"byteOffset":21148,"componentType":5123,"count":15,"type":"SCALAR"},{"bufferView":2,"byteOffset":21180,"componentType":5123,"count":228,"type":"SCALAR"},{"bufferView":2,"byteOffset":21636,"componentType":5123,"count":36,"type":"SCALAR"},{"bufferView":2,"byteOffset":21708,"componentType":5123,"count":210,"type":"SCALAR"},{"bufferView":2,"byteOffset":22128,"componentType":5123,"count":192,"type":"SCALAR"},{"bufferView":2,"byteOffset":22512,"componentType":5123,"count":9,"type":"SCALAR"},{"bufferView":2,"byteOffset":22532,"componentType":5123,"count":228,"type":"SCALAR"},{"bufferView":2,"byteOffset":22988,"componentType":5123,"count":228,"type":"SCALAR"},{"bufferView":2,"byteOffset":23444,"componentType":5123,"count":348,"type":"SCALAR"},{"bufferView":2,"byteOffset":24140,"componentType":5123,"count":156,"type":"SCALAR"},{"bufferView":2,"byteOffset":24452,"componentType":5123,"count":1770,"type":"SCALAR"},{"bufferView":2,"byteOffset":27992,"componentType":5123,"count":156,"type":"SCALAR"},{"bufferView":2,"byteOffset":28304,"componentType":5123,"count":270,"type":"SCALAR"},{"bufferView":2,"byteOffset":28844,"componentType":5123,"count":156,"type":"SCALAR"},{"bufferView":2,"byteOffset":29156,"componentType":5123,"count":6,"type":"SCALAR"},{"bufferView":2,"byteOffset":29168,"componentType":5123,"count":42,"type":"SCALAR"}],"asset":{"generator":"Open CASCADE Technology 7.6 [dev.opencascade.org]","version":"2.0"},"bufferViews":[{"buffer":0,"byteLength":42468,"byteOffset":0,"byteStride":12,"target":34962},{"buffer":0,"byteLength":42468,"byteOffset":42468,"byteStride":12,"target":34962},{"buffer":0,"byteLength":29252,"byteOffset":84936,"target":34963}],"buffers":[{"byteLength":114188,"uri":"weapon_zooka.bin"}],"materials":[{"name":"mat_0","pbrMetallicRoughness":{"baseColorFactor":[0.6038273572921753,0.6038273572921753,0.6038273572921753,1.0]},"doubleSided":true}],"meshes":[{"name":"Connect","primitives":[{"attributes":{"NORMAL":42,"POSITION":0},"indices":84,"material":0,"mode":4},{"attributes":{"NORMAL":43,"POSITION":1},"indices":85,"material":0,"mode":4},{"attributes":{"NORMAL":44,"POSITION":2},"indices":86,"material":0,"mode":4},{"attributes":{"NORMAL":45,"POSITION":3},"indices":87,"material":0,"mode":4},{"attributes":{"NORMAL":46,"POSITION":4},"indices":88,"material":0,"mode":4},{"attributes":{"NORMAL":47,"POSITION":5},"indices":89,"material":0,"mode":4},{"attributes":{"NORMAL":48,"POSITION":6},"indices":90,"material":0,"mode":4},{"attributes":{"NORMAL":49,"POSITION":7},"indices":91,"material":0,"mode":4},{"attributes":{"NORMAL":50,"POSITION":8},"indices":92,"material":0,"mode":4},{"attributes":{"NORMAL":51,"POSITION":9},"indices":93,"material":0,"mode":4},{"attributes":{"NORMAL":52,"POSITION":10},"indices":94,"material":0,"mode":4},{"attributes":{"NORMAL":53,"POSITION":11},"indices":95,"material":0,"mode":4},{"attributes":{"NORMAL":54,"POSITION":12},"indices":96,"material":0,"mode":4},{"attributes":{"NORMAL":55,"POSITION":13},"indices":97,"material":0,"mode":4},{"attributes":{"NORMAL":56,"POSITION":14},"indices":98,"material":0,"mode":4},{"attributes":{"NORMAL":57,"POSITION":15},"indices":99,"material":0,"mode":4},{"attributes":{"NORMAL":58,"POSITION":16},"indices":100,"material":0,"mode":4},{"attributes":{"NORMAL":59,"POSITION":17},"indices":101,"material":0,"mode":4},{"attributes":{"NORMAL":60,"POSITION":18},"indices":102,"material":0,"mode":4},{"attributes":{"NORMAL":61,"POSITION":19},"indices":103,"material":0,"mode":4},{"attributes":{"NORMAL":62,"POSITION":20},"indices":104,"material":0,"mode":4},{"attributes":{"NORMAL":63,"POSITION":21},"indices":105,"material":0,"mode":4},{"attributes":{"NORMAL":64,"POSITION":22},"indices":106,"material":0,"mode":4},{"attributes":{"NORMAL":65,"POSITION":23},"indices":107,"material":0,"mode":4},{"attributes":{"NORMAL":66,"POSITION":24},"indices":108,"material":0,"mode":4},{"attributes":{"NORMAL":67,"POSITION":25},"indices":109,"material":0,"mode":4},{"attributes":{"NORMAL":68,"POSITION":26},"indices":110,"material":0,"mode":4},{"attributes":{"NORMAL":69,"POSITION":27},"indices":111,"material":0,"mode":4},{"attributes":{"NORMAL":70,"POSITION":28},"indices":112,"material":0,"mode":4},{"attributes":{"NORMAL":71,"POSITION":29},"indices":113,"material":0,"mode":4},{"attributes":{"NORMAL":72,"POSITION":30},"indices":114,"material":0,"mode":4},{"attributes":{"NORMAL":73,"POSITION":31},"indices":115,"material":0,"mode":4},{"attributes":{"NORMAL":74,"POSITION":32},"indices":116,"material":0,"mode":4},{"attributes":{"NORMAL":75,"POSITION":33},"indices":117,"material":0,"mode":4},{"attributes":{"NORMAL":76,"POSITION":34},"indices":118,"material":0,"mode":4},{"attributes":{"NORMAL":77,"POSITION":35},"indices":119,"material":0,"mode":4},{"attributes":{"NORMAL":78,"POSITION":36},"indices":120,"material":0,"mode":4},{"attributes":{"NORMAL":79,"POSITION":37},"indices":121,"material":0,"mode":4},{"attributes":{"NORMAL":80,"POSITION":38},"indices":122,"material":0,"mode":4},{"attributes":{"NORMAL":81,"POSITION":39},"indices":123,"material":0,"mode":4},{"attributes":{"NORMAL":82,"POSITION":40},"indices":124,"material":0,"mode":4},{"attributes":{"NORMAL":83,"POSITION":41},"indices":125,"material":0,"mode":4}]}],"nodes":[{"mesh":0,"name":"Connect"}],"scene":0,"scenes":[{"nodes":[0]}]}