{"accessors":[{"bufferView":0,"byteOffset":0,"componentType":5126,"count":2504,"max":[0.012590281686080793,0.185,0.012586368399917969],"min":[-0.012590281686080793,0.17593401409871724,-0.012586368399917966],"type":"VEC3"},{"bufferView":0,"byteOffset":30048,"componentType":5126,"count":187,"max":[0.025,0.01,0.024992229550020414],"min":[-0.025,0.0,-0.024992229550020407],"type":"VEC3"},{"bufferView":0,"byteOffset":32292,"componentType":5126,"count":894,"max":[0.03,0.04,0.029990675460024497],"min":[-0.03,0.01,-0.02999067546002449],"type":"VEC3"},{"bufferView":0,"byteOffset":43020,"componentType":5126,"count":254,"max":[0.03,0.01,0.029990675460024497],"min":[-0.03,0.004900000000000001,-0.02999067546002449],"type":"VEC3"},{"bufferView":0,"byteOffset":46068,"componentType":5126,"count":126,"max":[0.025,0.01,0.024992229550020414],"min":[-0.025,0.01,-0.024992229550020407],"type":"VEC3"},{"bufferView":0,"byteOffset":47580,"componentType":5126,"count":4680,"max":[0.03,0.004900000000000001,0.029990675460024497],"min":[-0.03,0.0,-0.02999067546002449],"type":"VEC3"},{"bufferView":0,"byteOffset":103740,"componentType":5126,"count":54,"max":[0.01,0.15,0.009927088740980542],"min":[-0.01,0.04,-0.009927088740980545],"type":"VEC3"},{"bufferView":0,"byteOffset":104388,"componentType":5126,"count":126,"max":[0.0005712323405705043,0.185,0.0005710547912773385],"min":[-0.0005712323405705035,0.185,-0.0005710547912773383],"type":"VEC3"},{"bufferView":0,"byteOffset":105900,"componentType":5126,"count":116,"max":[0.0251,0.0,0.025090469706326284],"min":[-0.02506188606247624,0.0,-0.025090469706326284],"type":"VEC3"},{"bufferView":0,"byteOffset":107292,"componentType":5126,"count":1086,"max":[0.02,0.17593401409871724,0.01999378364001633],"min":[-0.02,0.15,-0.019993783640016327],"type":"VEC3"},{"bufferView":0,"byteOffset":120324,"componentType":5126,"count":152,"max":[0.02,0.04,0.01999378364001633],"min":[-0.02,0.04,-0.019993783640016327],"type":"VEC3"},{"bufferView":0,"byteOffset":122148,"componentType":5126,"count":152,"max":[0.02,0.15,0.01999378364001633],"min":[-0.02,0.15,-0.019993783640016327],"type":"VEC3"},{"bufferView":1,"byteOffset":0,"componentType":5126,"count":2504,"type":"VEC3"},{"bufferView":1,"byteOffset":30048,"componentType":5126,"count":187,"type":"VEC3"},{"bufferView":1,"byteOffset":32292,"componentType":5126,"count":894,"type":"VEC3"},{"bufferView":1,"byteOffset":43020,"componentType":5126,"count":254,"type":"VEC3"},{"bufferView":1,"byteOffset":46068,"componentType":5126,"count":126,"type":"VEC3"},{"bufferView":1,"byteOffset":47580,"componentType":5126,"count":4680,"type":"VEC3"},{"bufferView":1,"byteOffset":103740,"componentType":5126,"count":54,"type":"VEC3"},{"bufferView":1,"byteOffset":104388,"componentType":5126,"count":126,"type":"VEC3"},{"bufferView":1,"byteOffset":105900,"componentType":5126,"count":116,"type":"VEC3"},{"bufferView":1,"byteOffset":107292,"componentType":5126,"count":1086,"type":"VEC3"},{"bufferView":1,"byteOffset":120324,"componentType":5126,"count":152,"type":"VEC3"},{"bufferView":1,"byteOffset":122148,"componentType":5126,"count":152,"type":"VEC3"},{"bufferView":2,"byteOffset":0,"componentType":5123,"count":14106,"type":"SCALAR"},{"bufferView":2,"byteOffset":28212,"componentType":5123,"count":555,"type":"SCALAR"},{"bufferView":2,"byteOffset":29324,"componentType":5123,"count":4536,"type":"SCALAR"},{"bufferView":2,"byteOffset":38396,"componentType":5123,"count":756,"type":"SCALAR"},{"bufferView":2,"byteOffset":39908,"componentType":5123,"count":372,"type":"SCALAR"},{"bufferView":2,"byteOffset":40652,"componentType":5123,"count":27333,"type":"SCALAR"},{"bufferView":2,"byteOffset":95320,"componentType":5123,"count":156,"type":"SCALAR"},{"bufferView":2,"byteOffset":95632,"componentType":5123,"count":372,"type":"SCALAR"},{"bufferView":2,"byteOffset":96376,"componentType":5123,"count":348,"type":"SCALAR"},{"bufferView":2,"byteOffset":97072,"componentType":5123,"count":5670,"type":"SCALAR"},{"bufferView":2,"byteOffset":108412,"componentType":5123,"count":456,"type":"SCALAR"},{"bufferView":2,"byteOffset":109324,"componentType":5123,"count":456,"type":"SCALAR"}],"asset":{"generator":"Open CASCADE Technology 7.6 [dev.opencascade.org]","version":"2.0"},"bufferViews":[{"buffer":0,"byteLength":123972,"byteOffset":0,"byteStride":12,"target":34962},{"buffer":0,"byteLength":123972,"byteOffset":123972,"byteStride":12,"target":34962},{"buffer":0,"byteLength":110236,"byteOffset":247944,"target":34963}],"buffers":[{"byteLength":358180,"uri":"weapon_missile.bin"}],"materials":[{"name":"mat_0","pbrMetallicRoughness":{"baseColorFactor":[0.6038273572921753,0.6038273572921753,0.6038273572921753,1.0]},"doubleSided":true}],"meshes":[{"name":"Connect002","primitives":[{"attributes":{"NORMAL":12,"POSITION":0},"indices":24,"material":0,"mode":4},{"attributes":{"NORMAL":13,"POSITION":1},"indices":25,"material":0,"mode":4},{"attributes":{"NORMAL":14,"POSITION":2},"indices":26,"material":0,"mode":4},{"attributes":{"NORMAL":15,"POSITION":3},"indices":27,"material":0,"mode":4},{"attributes":{"NORMAL":16,"POSITION":4},"indices":28,"material":0,"mode":4},{"attributes":{"NORMAL":17,"POSITION":5},"indices":29,"material":0,"mode":4},{"attributes":{"NORMAL":18,"POSITION":6},"indices":30,"material":0,"mode":4},{"attributes":{"NORMAL":19,"POSITION":7},"indices":31,"material":0,"mode":4},{"attributes":{"NORMAL":20,"POSITION":8},"indices":32,"material":0,"mode":4},{"attributes":{"NORMAL":21,"POSITION":9},"indices":33,"material":0,"mode":4},{"attributes":{"NORMAL":22,"POSITION":10},"indices":34,"material":0,"mode":4},{"attributes":{"NORMAL":23,"POSITION":11},"indices":35,"material":0,"mode":4}]}],"nodes":[{"mesh":0,"name":"Connect002"}],"scene":0,"scenes":[{"nodes":[0]}]}